<svg id="Layer_1" data-name="Layer 1" xmlns="http://www.w3.org/2000/svg" viewBox="0 0 900.92 526.6"><defs><style>.cls-1{fill:#fff;}</style></defs><path class="cls-1" d="M135.22,315.25V130.8h23.25V98.25H76.94V130.8h23.25V315.25Zm81.34,0V218.53h27.28v96.72h35v-217h-35v87.42H216.56V98.25h-35v217ZM341.61,131.11H381V98.25h-74.4v217H381V282.39H341.61V218.53h31.93V185.67H341.61V131.11ZM405.3,272.78c0,34.1,8.06,44,39.68,44h18c31.31,0,39.69-9.92,39.69-44V140.72c0-34.1-8.38-44-39.69-44H445c-31.62,0-39.68,9.92-39.68,44V272.78Zm62.31-4.65c0,12.09-.93,15.81-11.15,15.81h-5c-10.24,0-11.17-3.72-11.17-15.81V145.37c0-12.09.93-15.81,11.17-15.81h5c10.22,0,11.15,3.72,11.15,15.81V268.13Zm61.87,47.12h57.66c31.31,0,39.68-9.92,39.68-44v-129c0-34.1-8.37-44-39.68-44H529.48v217Zm35-32.86V131.11h16.12c10.23,0,11.16,3.72,11.16,15.81V266.58c0,12.09-.93,15.81-11.16,15.81Zm88.32-9.61c0,34.1,8.06,44,39.68,44h18c31.31,0,39.68-9.92,39.68-44V140.72c0-34.1-8.37-44-39.68-44h-18c-31.62,0-39.68,9.92-39.68,44V272.78Zm62.31-4.65c0,12.09-.93,15.81-11.16,15.81h-5c-10.23,0-11.16-3.72-11.16-15.81V145.37c0-12.09.93-15.81,11.16-15.81h5c10.23,0,11.16,3.72,11.16,15.81V268.13Zm158.93-20.46c0-24.49-4.34-36.58-18.6-41.23,14.26-4.65,18.6-16.12,18.6-40.92V142.27c0-34.1-8.37-44-39.68-44H776.73v217h35V222.56h13.33c11.47,0,13.95,6.2,13.95,19.22v39.68c0,13.64.31,26.66,3.72,33.79H879c-4-10.85-5-24.18-5-38.13V247.67Zm-35-73.78c0,11.78-1.24,15.81-11.16,15.81H811.76V131.11h16.12c10.23,0,11.16,3.72,11.16,15.81v27Zm99.38-42.78h39.37V98.25h-74.4v217h74.4V282.39H938.42V218.53h31.93V185.67H938.42V131.11Z" transform="translate(-76.94 -96.7)"/><path class="cls-1" d="M185.83,482c0-22.91-4.06-34.22-17.4-38.57,13.34-4.35,17.4-15.08,17.4-38.28V383.43c0-31.9-7.83-41.18-37.12-41.18H94.77v203h32.77V458.54H140c10.73,0,13.05,5.8,13.05,18v37.12c0,12.76.29,24.94,3.48,31.61h33.93c-3.77-10.15-4.64-22.62-4.64-35.67V482Zm-32.77-69c0,11-1.16,14.79-10.44,14.79H127.54V373h15.08c9.57,0,10.44,3.48,10.44,14.79V413ZM208,505.52c0,31.9,7.54,41.18,37.12,41.18h16.82c29.29,0,37.12-9.28,37.12-41.18V382c0-31.9-7.83-41.18-37.12-41.18H245.11C215.53,340.8,208,350.08,208,382V505.52Zm58.29-4.35c0,11.31-.87,14.79-10.44,14.79H251.2c-9.57,0-10.44-3.48-10.44-14.79V386.33c0-11.31.87-14.79,10.44-14.79h4.64c9.57,0,10.44,3.48,10.44,14.79V501.17Zm54.89,4.35c0,31.9,7.54,41.18,37.12,41.18h16.82c29.29,0,37.12-9.28,37.12-41.18V382c0-31.9-7.83-41.18-37.12-41.18H358.29c-29.58,0-37.12,9.28-37.12,41.18V505.52Zm58.29-4.35c0,11.31-.87,14.79-10.44,14.79h-4.64c-9.57,0-10.44-3.48-10.44-14.79V386.33c0-11.31.87-14.79,10.44-14.79H369c9.57,0,10.44,3.48,10.44,14.79V501.17Zm109,0c0,11.31-.87,14.79-10.15,14.79h-3.77c-9.57,0-10.44-3.48-10.44-14.79V471.59H433.69v33.93c0,31.9,7.54,41.18,36.83,41.18h13.92c29,0,36.83-9.28,36.83-41.18V489.86c0-28.13-8.12-38-30.16-57.42-19.72-17.11-24.94-22.62-24.94-39.73v-7c0-10.73.87-14.21,10.44-14.21h3.48c9.28,0,10.44,3.48,10.44,14.79v23.78h30.74V382c0-31.9-7.54-41.18-36.83-41.18H470.52c-29.29,0-36.83,9.28-36.83,41.18v11c0,28.13,7.83,38.28,29.87,57.42,19.72,16.82,24.94,22.62,24.94,39.73v11ZM576,373h36.83V342.25h-69.6v203h69.6V514.51H576V454.77h29.87V424H576V373Zm87.52-30.74H630.77l26.39,203h43.21l26.39-203H697.47l-9.57,77.14c-3.48,27.26-6.09,59.16-7.54,81.2-1.45-21.75-3.77-53.94-7.25-81.2l-9.57-77.14Zm116,30.74h36.83V342.25h-69.6v203h69.6V514.51H779.56V454.77h29.87V424H779.56V373Zm58,172.26h64.67V514.51h-31.9V342.25H837.56v203Zm118.55,0V372.7h21.75V342.25H901.59V372.7h21.75V545.25Z" transform="translate(-76.94 -96.7)"/><path class="cls-1" d="M106.84,573.4a21.15,21.15,0,0,1,3.85-.3c7.62,0,9.13,5.2,9.13,10.64s-1.51,10.65-9.13,10.65a21.14,21.14,0,0,1-3.85-.31V573.4Zm-12,44.47-4,.53v3.77h20V618.4l-4-.53V598.16h5.51c10.57,0,20.08-2.64,20.08-14.27,0-12.91-10.49-14.57-22.35-14.57H90.83v3.78l4,.52v44.25Zm57.76-44.47a21.22,21.22,0,0,1,3.85-.3c7.62,0,9.13,5.2,9.13,10.64s-1.51,10.65-9.13,10.65a21.21,21.21,0,0,1-3.85-.31V573.4Zm-12,44.47-4,.53v3.77h20V618.4l-4-.53V598.16c1.51,0,3.09,0,4.68-.15l10,24.16H182V618.4l-3.55-.53-9.36-21.29c5.81-1.44,9.13-6.42,9.13-12.61,0-10.42-7.09-14.65-17.82-14.65H136.58v3.78l4,.52v44.25Zm63.57-21.6h4.31c5.13,0,6,4.76,6.57,8.69h3.17V584.19H215c-.61,3.55-1.44,8.31-6.57,8.31h-4.31v-19a44,44,0,0,1,5.36-.37c9.07,0,13.82,4.6,18.13,12.75l3.32-.67-3.48-17c-2.26.83-6.49,1.13-10.42,1.13H188.15v3.78l4,.52v44.25l-4,.53v3.77h28.91c2.5,0,4.53.08,6.2.23a17.64,17.64,0,0,1,4.22.9L232,605.71l-3.77-.9c-4.38,8.38-9.21,13.59-19,13.59a19.46,19.46,0,0,1-5.06-.61V596.27Zm33.75,10.2,3.17,16.3c1.59-.75,3.1-1.81,4.91-1.81,4.08,0,6.19,2.34,11.93,2.34,10.95,0,18.87-6,18.87-17.44,0-20.46-29.36-14.34-29.36-26.27,0-4.76,3.69-7.63,8.45-7.63,8.68,0,11.33,6.27,15.18,13l3.32-.61L271.27,569c-1.35.53-3.32,1.51-4.83,1.51a15.2,15.2,0,0,1-4.23-1.21,17.65,17.65,0,0,0-5.89-1.13c-10,0-16.45,6.64-16.45,16.76,0,18.87,28.76,12.76,28.76,26.5,0,5-3.62,8.08-10,8.08-8.91,0-13.9-6.57-17.6-13.82l-3.17.76Zm44.47-33.37,5.36.52v44.25l-5.36.53v3.77H305.1V618.4l-5.36-.53V573.62l5.36-.52v-3.78H282.37v3.78Zm45.6.22a16.55,16.55,0,0,1,3.25-.22c14.27,0,15.7,11.55,15.7,22.65s-1.43,22.65-15.7,22.65a15.85,15.85,0,0,1-3.25-.23V573.32Zm-12,44.55-4,.53v3.77h22.57c16.08,0,25.37-10.87,25.37-26.42s-9.29-26.43-25.37-26.43H312v3.78l4,.52v44.25Zm65.38-21.6h4.3c5.14,0,6,4.76,6.57,8.69h3.17V584.19h-3.17c-.6,3.55-1.43,8.31-6.57,8.31h-4.3v-19a43.88,43.88,0,0,1,5.36-.37c9.06,0,13.82,4.6,18.12,12.75l3.32-.67-3.47-17c-2.27.83-6.49,1.13-10.42,1.13H365.34v3.78l4,.52v44.25l-4,.53v3.77h28.92c2.49,0,4.53.08,6.19.23a17.62,17.62,0,0,1,4.23.9l4.53-17.59-3.78-.9c-4.37,8.38-9.21,13.59-19,13.59a19.46,19.46,0,0,1-5.06-.61V596.27Zm47.79-26.95h-15.4v3.78c1.89.37,5.36,1.28,5.36,4.15v34.5c0,3.4-1.66,6.12-5.36,6.65v3.77h15.33V618.4c-3.78-.46-6.35-2.35-6.35-6.65V581.4l.16-.15L448,622.17h7v-42c0-3.77,1.36-7.09,5.36-7.09v-3.78H445.07v3.78c5.21.37,6.34,2.49,6.34,7.09v25.45h-.3l-22-36.32Zm48,0a90.74,90.74,0,0,1-10.42-.6L464,585.93l3,.6c2.12-6.19,5.14-12.91,12.84-13.43v44.77l-4,.53v3.77h20V618.4l-4-.53V573.1c7.7.52,11,6.79,12.84,13.43l3-.6L505,568.72a90.89,90.89,0,0,1-10.42.6ZM512,573.1l5.36.52v44.25l-5.36.53v3.77h22.73V618.4l-5.36-.53V573.62l5.36-.52v-3.78H512v3.78Zm44.09,49.07V618.4c-2.71-.23-6.11-1.14-6.11-4.16a8.81,8.81,0,0,1,.38-1.88l1.66-6.27h17l3.47,11.78-4.15.53v3.77h20.15V618.4l-3.32-.53-16-48.55H556.05l2.12,5-11.55,35.26c-1.36,4.15-2,8.16-6.87,8.84v3.77ZM560.43,579h.15l6.88,22.88h-14.2L560.43,579Zm71.2,26.13-3.1-.83c-3.47,6-6.26,13.66-15.47,13.66a24.44,24.44,0,0,1-4.08-.3v-44l4-.52v-3.78H593v3.78l4,.52v44.25l-4,.53v3.77h24.54c2,0,4,.08,5.81.23a19.63,19.63,0,0,1,4.61.9l3.7-18.19Zm66.54,0-3.1-.83c-3.47,6-6.26,13.66-15.47,13.66a24.35,24.35,0,0,1-4.08-.3v-44l4-.52v-3.78h-20v3.78l4,.52v44.25l-4,.53v3.77h24.54c2,0,4,.08,5.81.23a19.63,19.63,0,0,1,4.61.9l3.7-18.19Zm3.62-32,5.36.52v44.25l-5.36.53v3.77h22.73V618.4l-5.36-.53V573.62l5.36-.52v-3.78H701.79v3.78ZM736,617.87l-4,.53v3.77h25.6c13.51,0,17.89-6.19,17.89-14.19,0-9.82-8.38-12.84-17.74-14.42v-.16c7.55-.52,15.48-2.64,15.48-11.55,0-10.64-9.52-12.53-20.16-12.53H732v3.78l4,.52v44.25Zm12-22.28c.9-.07,1.81-.15,2.72-.15,8.91,0,12.15,4.91,12.15,12.16,0,8-3.17,10.8-11.17,10.8A15.1,15.1,0,0,1,748,618V595.59Zm0-22.19a30.84,30.84,0,0,1,3.85-.3c7.62,0,9.36,4.68,9.36,9.28s-1.74,9.29-9.36,9.29H748V573.4Zm48.7,0a21.15,21.15,0,0,1,3.85-.3c7.62,0,9.13,5.2,9.13,10.64s-1.51,10.65-9.13,10.65a21.14,21.14,0,0,1-3.85-.31V573.4Zm-12,44.47-4,.53v3.77h20V618.4l-4-.53V598.16c1.51,0,3.09,0,4.68-.15l10,24.16h14.65V618.4l-3.55-.53-9.36-21.29c5.81-1.44,9.13-6.42,9.13-12.61,0-10.42-7.1-14.65-17.82-14.65H780.69v3.78l4,.52v44.25Zm61.38,4.3V618.4c-2.72-.23-6.11-1.14-6.11-4.16a9.3,9.3,0,0,1,.37-1.88l1.67-6.27h17l3.48,11.78-4.16.53v3.77h20.16V618.4l-3.32-.53-16-48.55H846.07l2.12,5-11.55,35.26c-1.36,4.15-2,8.16-6.88,8.84v3.77ZM850.45,579h.15l6.87,22.88H843.28L850.45,579Zm48.32-5.58a21.22,21.22,0,0,1,3.85-.3c7.63,0,9.14,5.2,9.14,10.64s-1.51,10.65-9.14,10.65a21.21,21.21,0,0,1-3.85-.31V573.4Zm-12,44.47-4,.53v3.77h20V618.4l-4-.53V598.16c1.51,0,3.1,0,4.68-.15l10,24.16h14.65V618.4l-3.55-.53-9.36-21.29c5.81-1.44,9.14-6.42,9.14-12.61,0-10.42-7.1-14.65-17.82-14.65H882.76v3.78l4,.52v44.25Zm57.15,0-4,.53v3.77h20V618.4l-4-.53v-18.2l11.86-21.44c1.66-3,2.72-5,6.19-5.13v-3.78H957.89v3.78c2.34.3,5.13.83,5.13,3.47,0,2.41-1.58,5.36-2.19,6.49l-6.72,12.08L944,573.62l3.24-.52v-3.78H927.69v3.78l2.79.52,13.44,26v18.2Z" transform="translate(-76.94 -96.7)"/></svg>